<?xml version="1.0" encoding="UTF-8" standalone="no"?>
<!-- Created with Inkscape (http://www.inkscape.org/) -->

<svg
   width="16"
   height="15.999999"
   viewBox="0 0 4.2333332 4.233333"
   version="1.1"
   id="svg1"
   xmlns="http://www.w3.org/2000/svg"
   xmlns:svg="http://www.w3.org/2000/svg">
  <defs
     id="defs1" />
  <g
     id="layer1">
    <rect
       style="fill:#fef1d7;fill-opacity:1;stroke:#352f36;stroke-width:0.302791;stroke-linecap:butt;stroke-linejoin:round;stroke-dasharray:none;stroke-dashoffset:0;stroke-opacity:1"
       id="rect1"
       width="3.9305427"
       height="3.9305429"
       x="0.1513955"
       y="0.1513955" />
    <path
       style="font-size:2.9327px;font-family:Monospace;-inkscape-font-specification:Monospace;text-align:center;text-anchor:middle;fill:#352f36;stroke:#352f36;stroke-width:0.244392;stroke-linejoin:round"
       d="M 0.90975739,2.6115381 V 1.1766918 H 0.80808664 q -0.0429595,0 -0.0615752,-0.015752 -0.0186158,-0.017184 -0.0186158,-0.044392 0,-0.027208 0.0186158,-0.04296 0.0186158,-0.017184 0.0615752,-0.017184 H 1.4553427 q 0.1517901,0 0.2763726,0.063007 0.1260144,0.063007 0.1918856,0.1431982 0.1131266,0.1360383 0.1718379,0.2878285 0.041527,0.1102626 0.041527,0.2606208 v 0.1661099 q 0,0.1847257 -0.081623,0.3579956 -0.081623,0.1732699 -0.2720767,0.3021483 -0.1417662,0.094511 -0.3279239,0.094511 H 0.80808664 q -0.0429595,0 -0.0615752,-0.017184 -0.0186158,-0.017184 -0.0186158,-0.042959 0,-0.027208 0.0186158,-0.04296 0.0186158,-0.017184 0.0615752,-0.017184 z m 0.12028651,0 h 0.4367546 q 0.1517902,0 0.2835325,-0.098807 Q 1.8835054,2.4139241 1.9493766,2.276454 2.0166796,2.1375517 2.0166796,2.0029454 V 1.7852843 q 0,-0.1116946 -0.0358,-0.1990456 Q 1.9293288,1.4587923 1.834818,1.3442337 1.7832666,1.2812265 1.6830279,1.2296751 1.5827891,1.1766918 1.4667985,1.1766918 H 1.0300439 Z M 3.2209769,2.2291988 H 3.0835066 L 2.6209763,1.1766918 h -0.022912 v 1.4348463 h 0.2219572 q 0.042959,0 0.061575,0.017184 0.018616,0.015752 0.018616,0.04296 0,0.025776 -0.018616,0.042959 -0.018616,0.017184 -0.061575,0.017184 H 2.3761073 q -0.04296,0 -0.061575,-0.017184 -0.018616,-0.017184 -0.018616,-0.042959 0,-0.027208 0.018616,-0.04296 0.018616,-0.017184 0.061575,-0.017184 H 2.477778 V 1.1766918 H 2.401883 q -0.04296,0 -0.061575,-0.015752 -0.018616,-0.017184 -0.018616,-0.044392 0,-0.027208 0.018616,-0.04296 0.018616,-0.017184 0.061575,-0.017184 H 2.6968713 L 3.1522417,2.0931605 3.6004522,1.0564052 h 0.2949884 q 0.044391,0 0.063007,0.017184 0.018616,0.015752 0.018616,0.04296 0,0.027208 -0.018616,0.044392 -0.018616,0.015752 -0.063007,0.015752 h -0.074463 v 1.4348463 h 0.1002388 q 0.044391,0 0.063007,0.017184 0.018616,0.015752 0.018616,0.04296 0,0.025776 -0.018616,0.042959 -0.018616,0.017184 -0.063007,0.017184 H 3.4787337 q -0.042959,0 -0.063007,-0.017184 -0.018616,-0.017184 -0.018616,-0.042959 0,-0.027208 0.018616,-0.04296 0.018616,-0.017184 0.063007,-0.017184 H 3.700691 V 1.1766918 H 3.674915 Z"
       id="text10"
       transform="scale(0.89485731,1.1174966)"
       aria-label="DM" />
  </g>
</svg>
